# xmcd
#
# Track frame offsets:
#	150
#	20999
#	37910
#	54829
#	75245
#	93884
#	107280
#	123135
#	138771
#	155549
#	175248
#	194704
#	212561
#	231690
#	249154
#
# Disc length: 3617 seconds
#
# Revision: 0
# Processed by: cddbd v1.5.2PL0 Copyright (c) Steve Scherf et al.
# Submitted via: EasyCDDAExtractor 10.5.1.1
#
DISCID=b70e1f0f
DTITLE=LeAnn Rimes - Sittin' On Top Of The World
DYEAR=2000
DGENRE=Country
TTITLE0=Commitment
TTITLE1=Looking Through Your Eyes
TTITLE2=Undeniable
TTITLE3=Feels Like Home
TTITLE4=Surrender
TTITLE5=These Arms Of Mine
TTITLE6=Nothin' New Under The Moon
TTITLE7=When Am I Gonna Get Over You (Feat  Bryan White)
TTITLE8=Rock Me
TTITLE9=More Than Anyone Deserves
TTITLE10=Insensitive
TTITLE11=All The Lovin' And Hurtin
TTITLE12=Sittin' On Top Of The World
TTITLE13=The Heart Never Forgets
TTITLE14=Purple Rain
EXTD=
EXTT0=
EXTT1=
EXTT2=
EXTT3=
EXTT4=
EXTT5=
EXTT6=
EXTT7=
EXTT8=
EXTT9=
EXTT10=
EXTT11=
EXTT12=
EXTT13=
EXTT14=
PLAYORDER=
